<svg width="127" height="128" viewBox="0 0 127 128" fill="none" xmlns="http://www.w3.org/2000/svg">
<path d="M119.155 56.1951C121.406 45.7242 116.491 33.7789 112.39 25.4959C108.649 17.9396 94.0223 5.30803 70.5875 1.25026C66.4734 0.634802 60.1028 0.00129861 55.5388 1.49043e-06C41.1895 -0.00407051 11.1999 8.33463 2.78096 38.0458C-0.171477 48.4653 -0.896025 58.8888 1.20233 68.274C3.83926 76.6088 11.9136 88.757 25.4111 98.4981C26.0046 111.305 24.7419 117.056 21.7667 126.745C21.3348 128.151 21.7667 127.995 23.2141 127.995H82.1384C83.0228 127.995 84.0683 126.954 84.3391 126.642C85.6257 125.157 86.0231 124.417 86.589 123.989C87.3127 123.443 87.4735 123.017 89.1621 123.286C92.0351 123.744 93.5801 124.067 96.4794 124.927C105.967 127.74 109.409 125.312 111.698 123.515C113.789 121.874 114.329 119.374 114.329 117.782C114.329 116.218 113.803 115.204 113.803 113.091C113.803 111.528 113.298 110.005 116.434 106.316C117.962 104.519 119.402 101.865 117.868 100.481C116.984 99.6837 117.131 98.849 118.012 97.9769L118.06 97.9297C118.862 97.1351 119.328 96.6739 120.117 95.3711C119.064 93.8075 118.538 93.2863 118.538 91.7228C118.538 90.6804 119.236 90.7566 120.924 90.4671C123.657 89.9982 125.753 87.7806 126.959 86.374C125.915 83.0921 124.882 80.4711 123.837 78.0488C122.112 74.0502 120.631 70.2149 119.675 66.0813C119.135 64.3767 118.634 63.1696 118.634 61.3984C118.634 59.3171 118.795 57.8666 119.155 56.1951Z" fill="white"/>
<path d="M120.575 77.208C121.539 79.5098 122.874 82.6284 123.837 85.747C122.725 87.0835 119.833 88.4943 117.312 88.9398C115.755 89.215 115.532 89.3112 115.457 90.6477C115.457 93.1723 116.051 94.2118 116.644 95.3256C115.902 96.5879 115.383 97.2561 114.493 98.2214C113.809 98.9639 113.9 99.7065 114.567 100.449C115.861 101.888 115.902 102.899 114.493 104.607C111.601 108.112 111.156 109.211 111.156 110.621C111.156 112.63 111.082 113.517 111.379 115.077C111.662 116.562 111.601 119.383 109.673 120.942C107.562 122.65 103.518 124.359 94.7675 121.685C92.0937 120.868 90.6688 120.561 88.0192 120.125C86.4619 119.87 86.3136 120.274 85.6461 120.795C85.1242 121.2 83.4956 122.576 82.309 123.987C82.0592 124.284 81.7158 124.804 80.9 124.804L75.8573 124.878C74.8932 124.878 73.4842 124.359 73.4842 123.097L73.2617 111.736C73.2617 111.142 72.9101 109.202 72.1494 107.577C70.0633 103.122 65.7718 101.934 61.7673 105.201C60.4021 106.315 58.7999 107.724 56.502 108.913C54.3514 110.028 52.5717 110.251 50.6436 107.428C49.9839 106.464 47.9437 102.076 49.457 95.5483C50.4383 91.316 53.1852 88.6428 56.3537 90.8705C59.8392 93.3208 62.3605 97.3304 67.255 95.6968C70.8145 94.4346 72.6684 91.3902 72.5201 85.6727C72.5201 82.3314 72.2236 77.2822 72.2236 70.5994V66.2928C72.2236 65.4377 72.2236 65.3275 73.1134 65.3275H77.4887C79.3427 65.3275 87.3517 64.585 91.8754 64.9563L94.6192 65.3275C95.5092 65.476 95.8058 65.5503 95.8058 66.5898V69.1144C95.8058 69.9312 95.5092 70.5252 94.8417 71.342C94.3722 71.9167 92.8368 73.9504 91.727 75.5002C88.909 79.4355 89.8731 84.1134 94.3967 86.4895C98.0305 88.3982 104.759 88.9697 110.563 86.4152C117.682 83.2819 116.718 78.099 114.642 74.9803C113.604 73.421 110.119 71.7132 109.747 66.6641C109.747 65.6988 110.012 65.4706 110.934 65.2533L114.493 64.6593C115.829 64.4365 116.163 64.4693 116.422 65.6246C117.303 69.5524 118.983 73.4083 120.575 77.208Z" fill="url(#paint0_linear_300_40)"/>
<path d="M110.192 27.3844C113.974 35.2553 118.201 46.3931 116.125 56.3429C115.793 57.9313 115.737 59.629 115.885 61.3922C115.959 62.2832 115.606 62.7287 114.271 62.803C113.125 62.8667 112.399 62.9998 111.305 63.2485C107.713 64.0653 106.632 68.3719 109.97 72.6042C111.14 74.0893 112.046 75.1288 113.381 76.8367C115.755 79.8728 113.576 83.6487 108.783 85.1529C103.098 86.9376 98.4012 86.4152 95.7315 85.1529C94.1001 84.3816 90.3181 82.1829 92.9878 76.8367C93.2473 76.3169 94.9159 74.0893 96.3248 72.6042C97.5225 71.342 99.9586 65.2533 94.1743 63.2485C92.7653 62.7601 86.3877 63.2485 81.4191 63.2485L72.7426 63.4712C72.2236 63.4712 72.0011 63.3227 72.0011 62.5802L71.6303 39.4134C72.2236 36.5175 76.1673 36.1463 78.082 37.8541C79.5396 39.1543 80.4551 40.0491 82.0123 41.1212C85.572 43.5715 89.5023 43.2745 91.8754 41.0469C96.6587 36.5569 96.2116 24.1173 91.8754 19.1425C88.3158 15.0585 84.0887 15.5783 80.5292 19.1425C79.2686 20.4047 77.7788 21.7677 77.3404 22.1125C76.1907 23.017 71.5561 24.4143 71.3336 19.2167C71.0803 13.2987 70.9518 10.0167 70.8887 4.1626C92.5015 8.01845 106.742 20.2041 110.192 27.3844Z" fill="url(#paint1_linear_300_40)"/>
<path d="M25.6122 123.683C28.3385 114.467 29.0298 108.81 28.4858 96.6281C16.1172 87.3622 7.49203 78.4073 4.39083 66.4798C13.1593 66.1531 23.2542 66.6822 27.2332 65.1869C30.9911 63.7746 29.8858 57.7565 27.2332 55.3011C20.9699 49.5033 22.8858 45.2209 28.9279 43.111C34.6753 41.1041 40.6047 42.2191 42.2649 43.111C49.0439 46.7532 44.9913 52.5509 42.2649 55.3011C38.3589 59.2412 39.9807 65.5585 45.065 65.5585L68.0546 65.2612C69.134 65.3141 69.932 65.7072 69.8968 66.5248C69.3073 80.2014 71.8863 90.5475 67.9809 93.1346C63.0441 96.4052 61.2967 93.1346 58.0336 90.5331C53.465 86.891 49.0439 88.7492 47.2755 95.3645C46.7597 97.294 46.5534 101.534 47.2755 105.177C48.3808 110.75 53.5387 113.453 58.0336 110.007C59.8756 108.595 61.7449 107.406 63.5599 106.068C67.3915 103.243 70.252 108.075 70.781 111.048C71.7117 116.278 71.4482 119.097 71.5179 124.353C71.4598 124.626 71.418 124.777 70.781 124.873H26.9385C25.6122 124.873 25.2164 125.022 25.6122 123.683Z" fill="url(#paint2_linear_300_40)"/>
<path d="M5.42243 40.0636C13.0857 10.9176 40.9369 3.12195 56.5598 3.12195C60.7421 3.12195 64.7269 3.44885 68.4968 4.03429L68.9389 19.1771C68.9389 21.3326 69.7695 23.2652 71.0757 24.2315C72.181 25.0491 74.8363 25.1977 76.7495 24.2315C77.7275 23.7376 78.2601 23.1908 79.1811 22.4476C80.2863 21.5556 80.4706 20.8866 82.7917 19.3257C84.7812 17.9878 86.8443 17.8615 88.2444 19.1771C90.1798 20.9958 90.7962 21.184 92.076 25.6437C92.8865 28.4683 92.705 33.2253 92.076 35.8268C90.6023 41.9218 85.2028 41.8475 82.6443 39.9893C80.8022 38.6513 79.4022 37.1673 78.4443 36.4957C74.0968 33.4483 69.2337 36.0498 69.2337 39.9893L69.6757 62.5854C69.6757 63.18 69.6021 63.4773 68.8652 63.4773L44.4754 63.7746C42.5596 63.7003 40.4228 60.1324 42.9281 57.2336C43.846 56.1715 44.2168 55.8638 45.065 54.7065C48.4545 50.99 47.9386 46.363 46.7597 44.5977C42.0439 37.5364 26.7998 39.9149 23.1805 44.5977C19.791 48.9831 22.4436 52.6088 23.1805 53.5171C24.5068 55.1524 26.4622 57.085 26.791 57.6053C30.0332 62.734 26.791 64.2205 23.4015 64.2205L3.967 64.6666C2.51603 57.6891 2.89106 49.6913 5.42243 40.0636Z" fill="url(#paint3_linear_300_40)"/>
<defs>
<linearGradient id="paint0_linear_300_40" x1="63.4797" y1="-128.13" x2="63.4797" y2="128" gradientUnits="userSpaceOnUse">
<stop stop-color="#FFD43B"/>
<stop offset="0.0001" stop-color="#FFD43B"/>
<stop offset="1" stop-color="#FFE873"/>
</linearGradient>
<linearGradient id="paint1_linear_300_40" x1="42.9405" y1="0" x2="42.9405" y2="188.11" gradientUnits="userSpaceOnUse">
<stop stop-color="#FFD43B"/>
<stop offset="0.0001" stop-color="#FFD43B"/>
<stop offset="1" stop-color="#FFE873"/>
</linearGradient>
<linearGradient id="paint2_linear_300_40" x1="82.2333" y1="-60.0139" x2="82.2333" y2="128" gradientUnits="userSpaceOnUse">
<stop stop-color="#306998"/>
<stop offset="1" stop-color="#4B8BBE"/>
</linearGradient>
<linearGradient id="paint3_linear_300_40" x1="47.8699" y1="3.12195" x2="47.8699" y2="124.878" gradientUnits="userSpaceOnUse">
<stop stop-color="#306998"/>
<stop offset="1" stop-color="#4B8BBE"/>
</linearGradient>
</defs>
</svg>
