<svg xmlns="http://www.w3.org/2000/svg" viewBox="0 0 728.91 245.59"><defs><style>.cls-1{fill:#00467f;}.cls-2{fill:#005daa;}.cls-3{fill:#fff;}.cls-4{fill:none;}</style></defs><g id="Layer_2" data-name="Layer 2"><g id="Layer_1-2" data-name="Layer 1"><rect class="cls-1" x="301.07" y="107.91" width="3" height="101.09"/><path class="cls-2" d="M346.87,175.43a6.86,6.86,0,0,1-3,5.76c-2,1.48-4.73,2.21-8.16,2.21a22.79,22.79,0,0,1-5.2-.52,26.4,26.4,0,0,1-4.14-1.33V175.8H327a14.44,14.44,0,0,0,4.29,2.35,13.94,13.94,0,0,0,4.57.82c.38,0,.87,0,1.48-.09a6.28,6.28,0,0,0,1.5-.32,4,4,0,0,0,1.17-.73,1.72,1.72,0,0,0,.46-1.29,1.76,1.76,0,0,0-.67-1.36,4.77,4.77,0,0,0-2-.88c-.9-.21-1.85-.41-2.86-.6a22.32,22.32,0,0,1-2.82-.72,8.83,8.83,0,0,1-4.36-2.66,6.54,6.54,0,0,1-1.33-4.18,6.43,6.43,0,0,1,3-5.47,13.15,13.15,0,0,1,7.73-2.12,23.73,23.73,0,0,1,4.68.46,21.59,21.59,0,0,1,4,1.15v5.53h-.66a12.88,12.88,0,0,0-3.55-1.95,12.28,12.28,0,0,0-4.3-.78,11.25,11.25,0,0,0-1.53.11,6.21,6.21,0,0,0-1.48.39,2.78,2.78,0,0,0-1.08.74,1.59,1.59,0,0,0-.45,1.11,1.65,1.65,0,0,0,.73,1.46,8,8,0,0,0,2.73.93l2.54.53a26.08,26.08,0,0,1,2.62.71,8.72,8.72,0,0,1,4.07,2.46A6,6,0,0,1,346.87,175.43Z"/><path class="cls-2" d="M362,183.44a15.05,15.05,0,0,1-4.94-.79,10.28,10.28,0,0,1-6.41-6.25,16.31,16.31,0,0,1,0-10.57,11,11,0,0,1,2.48-4,10.53,10.53,0,0,1,3.87-2.46,14.24,14.24,0,0,1,5-.87,18.84,18.84,0,0,1,2.73.17,19.1,19.1,0,0,1,2.25.44,16,16,0,0,1,2,.68c.58.26,1.09.49,1.53.71v5.81h-.71c-.3-.26-.67-.56-1.13-.91a15.45,15.45,0,0,0-1.55-1,10.78,10.78,0,0,0-1.92-.86,6.65,6.65,0,0,0-2.21-.35,7.33,7.33,0,0,0-2.48.41,5.86,5.86,0,0,0-2.17,1.36,6.59,6.59,0,0,0-1.54,2.42,10.19,10.19,0,0,0-.59,3.67,9.61,9.61,0,0,0,.64,3.76,6.54,6.54,0,0,0,1.6,2.38,5.83,5.83,0,0,0,2.19,1.26,8,8,0,0,0,2.38.38,7.47,7.47,0,0,0,2.24-.34,8.67,8.67,0,0,0,2-.91,12.22,12.22,0,0,0,1.47-1c.45-.35.82-.65,1.11-.91h.64v5.73l-1.72.76a13.44,13.44,0,0,1-1.72.61,20.39,20.39,0,0,1-2.21.52A17.34,17.34,0,0,1,362,183.44Z"/><path class="cls-2" d="M387.94,183h-14v-4.25h3.93V163.24H373.9V159h14v4.26H384v15.48h3.93Z"/><path class="cls-2" d="M410.33,183H393V159h17.35v4.64H399.14v4.14h10.39v4.64H399.14v5.93h11.19Z"/><path class="cls-2" d="M437.33,183h-6l-10.18-16.46V183h-5.67V159h7.39l8.75,13.74V159h5.67Z"/><path class="cls-2" d="M454.29,183.44a15.09,15.09,0,0,1-4.94-.79,10.54,10.54,0,0,1-3.89-2.36,10.65,10.65,0,0,1-2.52-3.89,15.21,15.21,0,0,1-.89-5.4,14.87,14.87,0,0,1,.85-5.17,11.14,11.14,0,0,1,2.48-4,10.49,10.49,0,0,1,3.88-2.46,14.19,14.19,0,0,1,5-.87,19.22,19.22,0,0,1,5,.61,16,16,0,0,1,2,.68c.58.26,1.1.49,1.54.71v5.81h-.71c-.3-.26-.68-.56-1.14-.91a14.38,14.38,0,0,0-1.55-1,10.47,10.47,0,0,0-1.92-.86,6.63,6.63,0,0,0-2.2-.35,7.39,7.39,0,0,0-2.49.41,5.94,5.94,0,0,0-2.17,1.36,6.72,6.72,0,0,0-1.54,2.42,10.19,10.19,0,0,0-.59,3.67,9.8,9.8,0,0,0,.64,3.76,6.54,6.54,0,0,0,1.6,2.38,5.9,5.9,0,0,0,2.19,1.26,8.05,8.05,0,0,0,2.39.38,7.45,7.45,0,0,0,2.23-.34,8.94,8.94,0,0,0,2-.91,12.93,12.93,0,0,0,1.46-1c.45-.35.82-.65,1.11-.91h.65v5.73l-1.73.76a12.92,12.92,0,0,1-1.72.61,19.86,19.86,0,0,1-2.21.52A17.25,17.25,0,0,1,454.29,183.44Z"/><path class="cls-2" d="M484.67,183H467.32V159h17.35v4.64h-11.2v4.14h10.39v4.64H473.47v5.93h11.2Z"/><path class="cls-1" d="M338.1,204.94a3.74,3.74,0,0,1-1.64,3.14,7.39,7.39,0,0,1-4.45,1.21,12.48,12.48,0,0,1-2.84-.29,14.94,14.94,0,0,1-2.26-.72v-3.14h.37a7.83,7.83,0,0,0,2.34,1.28,7.64,7.64,0,0,0,2.49.45c.21,0,.48,0,.81-.05a3.48,3.48,0,0,0,.82-.18,2.1,2.1,0,0,0,.64-.39,1,1,0,0,0-.12-1.45,2.48,2.48,0,0,0-1.07-.48l-1.56-.33a11.55,11.55,0,0,1-1.54-.39,4.77,4.77,0,0,1-2.37-1.45,3.67,3.67,0,0,1,.91-5.26,7.15,7.15,0,0,1,4.21-1.16,12.82,12.82,0,0,1,2.55.25,12.55,12.55,0,0,1,2.19.63v3h-.36a7.29,7.29,0,0,0-1.94-1.06,6.72,6.72,0,0,0-2.34-.42,7.89,7.89,0,0,0-.84.05,3.5,3.5,0,0,0-.8.22,1.51,1.51,0,0,0-.59.4.85.85,0,0,0-.25.61.91.91,0,0,0,.4.8,4.46,4.46,0,0,0,1.49.5l1.38.29a11.92,11.92,0,0,1,1.43.39,4.78,4.78,0,0,1,2.22,1.34A3.27,3.27,0,0,1,338.1,204.94Z"/><path class="cls-1" d="M346,209.3a8,8,0,0,1-2.69-.43,5.68,5.68,0,0,1-2.13-1.28,5.76,5.76,0,0,1-1.37-2.12,8.91,8.91,0,0,1,0-5.77,6.13,6.13,0,0,1,1.35-2.17,5.65,5.65,0,0,1,2.11-1.34,7.69,7.69,0,0,1,2.76-.48,10.76,10.76,0,0,1,2.71.34,8.34,8.34,0,0,1,1.07.37l.84.38V200h-.39c-.16-.14-.37-.3-.62-.49a6.28,6.28,0,0,0-.85-.57,5.16,5.16,0,0,0-1-.47,3.68,3.68,0,0,0-1.2-.2,4.09,4.09,0,0,0-1.36.23,3.17,3.17,0,0,0-1.18.74,3.49,3.49,0,0,0-.84,1.32,5.41,5.41,0,0,0-.32,2,5.33,5.33,0,0,0,.34,2.05,3.63,3.63,0,0,0,.88,1.3,3.26,3.26,0,0,0,1.19.69,4.28,4.28,0,0,0,1.3.2,4.24,4.24,0,0,0,1.22-.18,4.65,4.65,0,0,0,1.11-.5,8,8,0,0,0,.8-.54c.25-.19.45-.36.61-.5h.35v3.13l-.94.41a8.68,8.68,0,0,1-.94.34c-.43.12-.83.21-1.21.28A10.23,10.23,0,0,1,346,209.3Z"/><path class="cls-1" d="M364.47,209.05H361.1v-5.76h-5v5.76h-3.38V196h3.38v4.79h5V196h3.37Z"/><path class="cls-1" d="M380.19,202.51a6.84,6.84,0,0,1-1.79,5,7.58,7.58,0,0,1-9.9,0,7.81,7.81,0,0,1,0-9.95,7.6,7.6,0,0,1,9.89,0A6.79,6.79,0,0,1,380.19,202.51Zm-4.47,3.32a3.94,3.94,0,0,0,.73-1.41,6.85,6.85,0,0,0,.24-1.92,6.19,6.19,0,0,0-.28-2,3.89,3.89,0,0,0-.71-1.33,2.61,2.61,0,0,0-1-.77,3.2,3.2,0,0,0-1.22-.24,3.26,3.26,0,0,0-1.21.23,3.05,3.05,0,0,0-1,.76,3.69,3.69,0,0,0-.71,1.36,7.37,7.37,0,0,0,0,4,3.77,3.77,0,0,0,.71,1.34,2.71,2.71,0,0,0,1,.77,3.3,3.3,0,0,0,1.24.24,3.05,3.05,0,0,0,1.24-.25A2.64,2.64,0,0,0,375.72,205.83Z"/><path class="cls-1" d="M395.14,202.51a6.8,6.8,0,0,1-1.79,5,7.58,7.58,0,0,1-9.9,0,7.81,7.81,0,0,1,0-9.95,7.6,7.6,0,0,1,9.89,0A6.79,6.79,0,0,1,395.14,202.51Zm-4.47,3.32a3.94,3.94,0,0,0,.73-1.41,6.85,6.85,0,0,0,.24-1.92,6.49,6.49,0,0,0-.27-2,3.89,3.89,0,0,0-.71-1.33,2.64,2.64,0,0,0-1-.77,3.15,3.15,0,0,0-1.21-.24,3.26,3.26,0,0,0-1.21.23,2.87,2.87,0,0,0-1,.76,3.7,3.7,0,0,0-.72,1.36,6.66,6.66,0,0,0-.28,2,6.38,6.38,0,0,0,.27,2,3.94,3.94,0,0,0,.71,1.34,2.74,2.74,0,0,0,1,.77,3.22,3.22,0,0,0,1.24.24,3,3,0,0,0,1.23-.25A2.57,2.57,0,0,0,390.67,205.83Z"/><path class="cls-1" d="M406.81,209.05h-9.43V196h3.37v10.55h6.06Z"/><path class="cls-1" d="M427,202.51a6.84,6.84,0,0,1-1.79,5,7.58,7.58,0,0,1-9.9,0,7.78,7.78,0,0,1,0-9.95,7.6,7.6,0,0,1,9.89,0A6.79,6.79,0,0,1,427,202.51Zm-4.47,3.32a3.94,3.94,0,0,0,.73-1.41,6.87,6.87,0,0,0,.23-1.92,6.49,6.49,0,0,0-.27-2,3.89,3.89,0,0,0-.71-1.33,2.61,2.61,0,0,0-1-.77,3.2,3.2,0,0,0-1.22-.24,3.26,3.26,0,0,0-1.21.23,3.05,3.05,0,0,0-1,.76,3.69,3.69,0,0,0-.71,1.36,7.37,7.37,0,0,0,0,4,3.93,3.93,0,0,0,.7,1.34,2.82,2.82,0,0,0,1,.77,3.26,3.26,0,0,0,1.24.24,3.09,3.09,0,0,0,1.24-.25A2.64,2.64,0,0,0,422.56,205.83Z"/><path class="cls-1" d="M438.64,198.5h-6v2.43h5.58v2.53h-5.58v5.59h-3.36V196h9.38Z"/><path class="cls-1" d="M452.34,209.3a8,8,0,0,1-2.69-.43,5.64,5.64,0,0,1-2.12-1.28,5.91,5.91,0,0,1-1.38-2.12,8.37,8.37,0,0,1-.48-2.95,8.14,8.14,0,0,1,.46-2.82,6,6,0,0,1,1.36-2.17,5.58,5.58,0,0,1,2.11-1.34,7.68,7.68,0,0,1,2.75-.48,9.62,9.62,0,0,1,1.49.1,10.32,10.32,0,0,1,1.23.24,8.34,8.34,0,0,1,1.07.37l.83.38V200h-.38l-.62-.49a6.28,6.28,0,0,0-.85-.57,5,5,0,0,0-1.05-.47,3.6,3.6,0,0,0-1.2-.2,4.07,4.07,0,0,0-1.35.23,3.28,3.28,0,0,0-1.19.74,3.75,3.75,0,0,0-.84,1.32,5.63,5.63,0,0,0-.32,2,5.31,5.31,0,0,0,.35,2.05,3.61,3.61,0,0,0,.87,1.3,3.3,3.3,0,0,0,1.2.69,4.24,4.24,0,0,0,1.3.2,4.29,4.29,0,0,0,1.22-.18,4.65,4.65,0,0,0,1.11-.5,9.31,9.31,0,0,0,.8-.54l.6-.5H457v3.13c-.32.15-.64.28-.94.41a8,8,0,0,1-.94.34c-.42.12-.82.21-1.2.28A10.29,10.29,0,0,1,452.34,209.3Z"/><path class="cls-1" d="M471.83,202.51a6.84,6.84,0,0,1-1.79,5,7.58,7.58,0,0,1-9.9,0,7.81,7.81,0,0,1,0-9.95,7.6,7.6,0,0,1,9.89,0A6.79,6.79,0,0,1,471.83,202.51Zm-4.47,3.32a3.94,3.94,0,0,0,.73-1.41,6.85,6.85,0,0,0,.24-1.92,6.19,6.19,0,0,0-.28-2,3.72,3.72,0,0,0-.71-1.33,2.61,2.61,0,0,0-1-.77,3.16,3.16,0,0,0-1.22-.24,3.2,3.2,0,0,0-1.2.23,3,3,0,0,0-1.05.76,3.69,3.69,0,0,0-.71,1.36,7.37,7.37,0,0,0,0,4,3.77,3.77,0,0,0,.71,1.34,2.71,2.71,0,0,0,1,.77,3.3,3.3,0,0,0,1.24.24,3.05,3.05,0,0,0,1.24-.25A2.64,2.64,0,0,0,467.36,205.83Z"/><path class="cls-1" d="M487.78,209.05h-3.36v-8.76L482,206h-2.33l-2.43-5.68v8.76h-3.18V196H478l2.95,6.56,2.93-6.56h3.92Z"/><path class="cls-1" d="M501.57,200.1a5,5,0,0,1-.3,1.71,4,4,0,0,1-.88,1.42,5.4,5.4,0,0,1-1.75,1.16,6.19,6.19,0,0,1-2.39.4h-2.1v4.26h-3.38V196h5.56a9,9,0,0,1,2.1.21,5.09,5.09,0,0,1,1.52.65,3.51,3.51,0,0,1,1.21,1.33A4.25,4.25,0,0,1,501.57,200.1Zm-3.49.07a1.6,1.6,0,0,0-.29-.95,1.69,1.69,0,0,0-.7-.56,3.25,3.25,0,0,0-1-.23l-1.33,0h-.58v3.91h1a7.75,7.75,0,0,0,1.41-.11,2,2,0,0,0,.94-.42,1.58,1.58,0,0,0,.47-.67A2.64,2.64,0,0,0,498.08,200.17Z"/><path class="cls-1" d="M515.08,204.31A4.66,4.66,0,0,1,513.6,208a8,8,0,0,1-8.69,0,4.68,4.68,0,0,1-1.47-3.71V196h3.39v8.16a3.07,3.07,0,0,0,.57,2,2.33,2.33,0,0,0,1.85.67,2.41,2.41,0,0,0,1.85-.64,3,3,0,0,0,.59-2.06V196h3.39Z"/><path class="cls-1" d="M528.12,198.5H524v10.55h-3.37V198.5h-4.09V196h11.54Z"/><path class="cls-1" d="M539.27,209.05h-9.46V196h9.46v2.53h-6.1v2.26h5.67v2.53h-5.67v3.23h6.1Z"/><path class="cls-1" d="M554.36,209.05h-4.12l-3.56-4.8h-1.56v4.8h-3.36V196h5.66a12.67,12.67,0,0,1,2,.13,4.43,4.43,0,0,1,1.57.57,3.36,3.36,0,0,1,1.17,1.14,3.24,3.24,0,0,1,.44,1.75,3.86,3.86,0,0,1-.68,2.36,4.9,4.9,0,0,1-1.92,1.52ZM549.1,200a1.71,1.71,0,0,0-.2-.84,1.38,1.38,0,0,0-.7-.55,2.36,2.36,0,0,0-.8-.17c-.3,0-.66,0-1.06,0h-1.22v3.53h1a10.25,10.25,0,0,0,1.36-.08,1.86,1.86,0,0,0,.91-.36,1.58,1.58,0,0,0,.51-.6A2,2,0,0,0,549.1,200Z"/><path class="cls-1" d="M571.77,204.94a3.73,3.73,0,0,1-1.63,3.14,7.41,7.41,0,0,1-4.45,1.21,12.48,12.48,0,0,1-2.84-.29,14.94,14.94,0,0,1-2.26-.72v-3.14H561a7.83,7.83,0,0,0,2.34,1.28,7.64,7.64,0,0,0,2.49.45c.21,0,.48,0,.81-.05a3.6,3.6,0,0,0,.82-.18,1.93,1.93,0,0,0,.63-.39.94.94,0,0,0,.26-.71,1,1,0,0,0-.37-.74,2.48,2.48,0,0,0-1.07-.48l-1.56-.33a11.55,11.55,0,0,1-1.54-.39,4.85,4.85,0,0,1-2.38-1.45,3.57,3.57,0,0,1-.72-2.28,3.51,3.51,0,0,1,1.64-3,7.15,7.15,0,0,1,4.21-1.16,12.82,12.82,0,0,1,2.55.25,12.55,12.55,0,0,1,2.19.63v3h-.36a7.29,7.29,0,0,0-1.94-1.06,6.8,6.8,0,0,0-2.34-.42,7.89,7.89,0,0,0-.84.05,3.73,3.73,0,0,0-.81.22,1.55,1.55,0,0,0-.58.4.85.85,0,0,0-.25.61.91.91,0,0,0,.4.8,4.46,4.46,0,0,0,1.49.5l1.38.29a12.45,12.45,0,0,1,1.43.39,4.78,4.78,0,0,1,2.22,1.34A3.27,3.27,0,0,1,571.77,204.94Z"/><path class="cls-1" d="M579.66,209.3a8.09,8.09,0,0,1-2.7-.43,5.64,5.64,0,0,1-2.12-1.28,5.76,5.76,0,0,1-1.37-2.12,9,9,0,0,1,0-5.77,6.29,6.29,0,0,1,1.36-2.17,5.65,5.65,0,0,1,2.11-1.34,7.69,7.69,0,0,1,2.76-.48,9.48,9.48,0,0,1,1.48.1,9.58,9.58,0,0,1,1.23.24,8.34,8.34,0,0,1,1.07.37l.84.38V200h-.39c-.16-.14-.37-.3-.62-.49a6.28,6.28,0,0,0-.85-.57,5.16,5.16,0,0,0-1-.47,3.7,3.7,0,0,0-1.21-.2,4.07,4.07,0,0,0-1.35.23,3.28,3.28,0,0,0-1.19.74,3.6,3.6,0,0,0-.83,1.32,5.4,5.4,0,0,0-.33,2,5.31,5.31,0,0,0,.35,2.05,3.51,3.51,0,0,0,.88,1.3,3.18,3.18,0,0,0,1.19.69,4.28,4.28,0,0,0,2.52,0,4.65,4.65,0,0,0,1.11-.5,8,8,0,0,0,.8-.54c.24-.19.45-.36.6-.5h.36v3.13l-.94.41a9.52,9.52,0,0,1-.94.34c-.43.12-.83.21-1.21.28A10.23,10.23,0,0,1,579.66,209.3Z"/><path class="cls-1" d="M593.49,209.05h-7.66v-2.32H588v-8.44h-2.15V196h7.66v2.32h-2.14v8.44h2.14Z"/><path class="cls-1" d="M605.36,209.05H595.9V196h9.46v2.53h-6.1v2.26h5.67v2.53h-5.67v3.23h6.1Z"/><path class="cls-1" d="M619.75,209.05H616.5l-5.56-9v9h-3.09V196h4l4.77,7.49V196h3.1Z"/><path class="cls-1" d="M628.66,209.3a8.09,8.09,0,0,1-2.7-.43,5.64,5.64,0,0,1-2.12-1.28,5.76,5.76,0,0,1-1.37-2.12,9,9,0,0,1,0-5.77,6.29,6.29,0,0,1,1.36-2.17,5.65,5.65,0,0,1,2.11-1.34,7.69,7.69,0,0,1,2.76-.48,9.48,9.48,0,0,1,1.48.1,9.58,9.58,0,0,1,1.23.24,8.34,8.34,0,0,1,1.07.37l.84.38V200h-.39c-.16-.14-.37-.3-.62-.49a6.28,6.28,0,0,0-.85-.57,5.16,5.16,0,0,0-1-.47,3.7,3.7,0,0,0-1.21-.2,4.07,4.07,0,0,0-1.35.23,3.28,3.28,0,0,0-1.19.74,3.6,3.6,0,0,0-.83,1.32,5.4,5.4,0,0,0-.33,2,5.31,5.31,0,0,0,.35,2.05,3.51,3.51,0,0,0,.88,1.3,3.18,3.18,0,0,0,1.19.69,4.28,4.28,0,0,0,2.52,0,4.65,4.65,0,0,0,1.11-.5,8,8,0,0,0,.8-.54c.24-.19.45-.36.6-.5h.36v3.13l-.94.41a9.52,9.52,0,0,1-.94.34c-.43.12-.83.21-1.21.28A10.23,10.23,0,0,1,628.66,209.3Z"/><path class="cls-1" d="M644.89,209.05h-9.47V196h9.47v2.53h-6.11v2.26h5.67v2.53h-5.67v3.23h6.11Z"/><polygon class="cls-1" points="0 36.6 36.6 0 255.75 0 255.75 208.92 219.09 245.59 0.14 245.59 0 36.6"/><polygon class="cls-3" points="39 188.22 39.99 188.22 39.99 181.51 42.39 181.51 42.39 180.52 36.6 180.52 36.6 181.51 39 181.51 39 188.22"/><path class="cls-3" d="M44.13,183.05c-1.26,0-2.14,1-2.14,2.57s.8,2.7,2.22,2.7a2.8,2.8,0,0,0,1.82-.59v-1a2.74,2.74,0,0,1-1.6.6c-.87,0-1.39-.52-1.53-1.52h3.21C46.11,184,45.34,183.05,44.13,183.05Zm-1.21,2.12c.12-.8.53-1.25,1.23-1.25s1,.49,1.06,1.25Z"/><polygon class="cls-3" points="54.85 180.52 53.9 180.52 51.98 185.83 50.07 180.52 49.07 180.52 51.88 188.29 52.07 188.29 54.37 181.99 56.64 188.29 56.84 188.29 59.65 180.52 58.67 180.52 56.78 185.83 54.85 180.52"/><path class="cls-3" d="M64.67,188.22v-3.1c0-1.39-.67-2.07-1.56-2.07a1.69,1.69,0,0,0-1.36.77h0v-3.3h-.9v7.7h.9v-3.64c.43-.52.74-.73,1.14-.73.55,0,.89.49.89,1.23v3.14Z"/><path class="cls-3" d="M67.65,185.48c-.73.29-1.56.59-1.56,1.6a1.17,1.17,0,0,0,1.12,1.24,1.85,1.85,0,0,0,1.23-.52.61.61,0,0,0,.69.52c.29,0,.46-.09.87-.39v-.61a1,1,0,0,1-.47.27c-.11,0-.18-.07-.18-.26v-2.61a1.53,1.53,0,0,0-1.65-1.67,1.78,1.78,0,0,0-1.52.69v1.09a1.86,1.86,0,0,1,1.45-.83c.55,0,.82.26.82.89v.27Zm.8,1.71a1.12,1.12,0,0,1-.79.42.65.65,0,0,1-.65-.71c0-.6.67-.89,1.44-1.19Z"/><path class="cls-3" d="M71.41,183.15v5.07h.9v-2.65c0-.87.49-1.56,1.11-1.56a1.44,1.44,0,0,1,.84.49l.48-.86a1.5,1.5,0,0,0-1.09-.59c-.42,0-.86.37-1.32,1.26h0v-1.16Z"/><path class="cls-3" d="M77.62,183.05c-1.26,0-2.13,1-2.13,2.57s.79,2.7,2.21,2.7a2.8,2.8,0,0,0,1.82-.59v-1a2.74,2.74,0,0,1-1.59.6c-.88,0-1.4-.52-1.54-1.52H79.6C79.6,184,78.83,183.05,77.62,183.05Zm-1.21,2.12c.12-.8.54-1.25,1.23-1.25s1,.49,1.07,1.25Z"/><polygon class="cls-3" points="88.34 180.52 87.39 180.52 85.47 185.83 83.56 180.52 82.57 180.52 85.37 188.29 85.57 188.29 87.86 181.99 90.14 188.29 90.33 188.29 93.15 180.52 92.16 180.52 90.27 185.83 88.34 180.52"/><path class="cls-3" d="M94.91,185.48c-.73.29-1.56.59-1.56,1.6a1.17,1.17,0,0,0,1.12,1.24,1.85,1.85,0,0,0,1.23-.52.61.61,0,0,0,.69.52c.28,0,.46-.09.88-.39v-.61a1.08,1.08,0,0,1-.48.27c-.12,0-.17-.07-.17-.26v-2.61A1.54,1.54,0,0,0,95,183.05a1.75,1.75,0,0,0-1.51.69v1.09a1.82,1.82,0,0,1,1.44-.83c.55,0,.82.26.82.89v.27Zm.8,1.71a1.12,1.12,0,0,1-.79.42.65.65,0,0,1-.65-.71c0-.6.67-.89,1.44-1.19Z"/><path class="cls-3" d="M102.43,188.22v-3.13c0-1.39-.69-2-1.55-2a1.72,1.72,0,0,0-1.37.77h0v-.67h-.9v5.07h.9v-3.64c.43-.52.74-.73,1.14-.73.55,0,.89.49.89,1.23v3.14Z"/><path class="cls-3" d="M105.41,185.48c-.73.29-1.55.59-1.55,1.6a1.16,1.16,0,0,0,1.11,1.24,1.84,1.84,0,0,0,1.23-.52.61.61,0,0,0,.69.52c.29,0,.46-.09.88-.39v-.61a1.08,1.08,0,0,1-.48.27c-.11,0-.17-.07-.17-.26v-2.61a1.53,1.53,0,0,0-1.66-1.67,1.75,1.75,0,0,0-1.51.69v1.09a1.82,1.82,0,0,1,1.44-.83c.55,0,.82.26.82.89v.27Zm.8,1.71a1.1,1.1,0,0,1-.79.42.65.65,0,0,1-.65-.71c0-.6.67-.89,1.44-1.19Z"/><path class="cls-3" d="M112.93,188.22v-3.13c0-1.39-.69-2-1.55-2a1.72,1.72,0,0,0-1.37.77h0v-.67h-.9v5.07h.9v-3.64c.43-.52.75-.73,1.14-.73.55,0,.9.49.9,1.23v3.14Z"/><path class="cls-3" d="M118.37,183.15h-1.88c-1.23,0-2,.67-2,1.75a1.79,1.79,0,0,0,.24.95,1.84,1.84,0,0,0,.77.65v0c-.44.11-.73.4-.73.72s.15.43.46.65a1.32,1.32,0,0,0-1.15,1.39c0,.9.88,1.54,2.11,1.54s2.15-.61,2.15-1.62c0-.64-.34-1.19-1.32-1.4s-1.39-.38-1.39-.66c0-.6,1.24-.24,1.85-1a2,2,0,0,0,.42-1.14,1.49,1.49,0,0,0-.47-1.11h.93ZM116,188.47c.56,0,1.5.17,1.5.81,0,.47-.47.74-1.26.74s-1.27-.27-1.27-.78S115.37,188.47,116,188.47Zm.25-2.61a.87.87,0,0,1-.92-.93.92.92,0,0,1,.91-.91.9.9,0,0,1,.88.89A.87.87,0,0,1,116.23,185.86Z"/><path class="cls-3" d="M120.79,185.48c-.73.29-1.55.59-1.55,1.6a1.16,1.16,0,0,0,1.12,1.24,1.83,1.83,0,0,0,1.22-.52.62.62,0,0,0,.7.52c.28,0,.45-.09.87-.39v-.61a1.08,1.08,0,0,1-.48.27c-.11,0-.17-.07-.17-.26v-2.61a1.53,1.53,0,0,0-1.66-1.67,1.75,1.75,0,0,0-1.51.69v1.09a1.85,1.85,0,0,1,1.44-.83c.55,0,.82.26.82.89v.27Zm.8,1.71a1.1,1.1,0,0,1-.79.42.66.66,0,0,1-.65-.71c0-.6.67-.89,1.44-1.19Z"/><path class="cls-3" d="M130,188.32a2.65,2.65,0,1,0-2.41-2.68A2.45,2.45,0,0,0,130,188.32Zm0-4.37a1.57,1.57,0,0,1,1.56,1.7,1.56,1.56,0,0,1-1.56,1.77c-.87,0-1.47-.71-1.47-1.78A1.54,1.54,0,0,1,130,184Z"/><polygon class="cls-3" points="139.03 188.22 139.03 181.51 141.43 181.51 141.43 180.52 135.63 180.52 135.63 181.51 138.03 181.51 138.03 188.22 139.03 188.22"/><path class="cls-3" d="M142.69,185.48c-.74.29-1.56.59-1.56,1.6a1.17,1.17,0,0,0,1.12,1.24,1.87,1.87,0,0,0,1.23-.52.61.61,0,0,0,.69.52,1.37,1.37,0,0,0,.87-.39v-.61a1,1,0,0,1-.47.27c-.12,0-.18-.07-.18-.26v-2.61a1.53,1.53,0,0,0-1.65-1.67,1.77,1.77,0,0,0-1.52.69v1.09a1.85,1.85,0,0,1,1.44-.83c.55,0,.83.26.83.89v.27Zm.8,1.71a1.14,1.14,0,0,1-.8.42.66.66,0,0,1-.65-.71c0-.6.67-.89,1.45-1.19Z"/><path class="cls-3" d="M153.33,188.22V185c0-1.2-.59-2-1.52-2a2,2,0,0,0-1.52.91,1.52,1.52,0,0,0-1.37-.91,1.88,1.88,0,0,0-1.33.77v-.67h-.9v5.07h.9v-3.68a1.33,1.33,0,0,1,1.14-.65c.45,0,.83.36.83,1.18v3.15h.9v-3.68a1.61,1.61,0,0,1,1-.65c.53,0,.95.42.95,1.19v3.14Z"/><path class="cls-3" d="M156.63,185.48c-.73.29-1.55.59-1.55,1.6a1.16,1.16,0,0,0,1.11,1.24,1.88,1.88,0,0,0,1.24-.52.6.6,0,0,0,.68.52c.29,0,.46-.09.88-.39v-.61a1.08,1.08,0,0,1-.48.27c-.11,0-.17-.07-.17-.26v-2.61a1.54,1.54,0,0,0-1.66-1.67,1.77,1.77,0,0,0-1.51.69v1.09a1.82,1.82,0,0,1,1.44-.83c.55,0,.82.26.82.89v.27Zm.8,1.71a1.1,1.1,0,0,1-.79.42.65.65,0,0,1-.65-.71c0-.6.67-.89,1.44-1.19Z"/><polygon class="cls-3" points="163.63 183.15 161.61 185.63 163.89 188.22 165.12 188.22 162.76 185.63 164.71 183.15 163.63 183.15"/><rect class="cls-3" x="160.67" y="180.52" width="0.9" height="7.71"/><path class="cls-3" d="M166.91,181a.58.58,0,0,0-.54.6.54.54,0,1,0,.54-.6Z"/><rect class="cls-3" x="166.45" y="183.15" width="0.9" height="5.07"/><polygon class="cls-3" points="179.81 188.22 179.81 180.52 178.89 180.52 176.59 183.68 174.29 180.52 173.35 180.52 173.35 188.22 174.35 188.22 174.35 182.23 174.37 182.23 176.5 185.21 176.67 185.21 178.8 182.23 178.82 182.23 178.82 188.22 179.81 188.22"/><path class="cls-3" d="M183.25,185.48c-.73.29-1.56.59-1.56,1.6a1.17,1.17,0,0,0,1.12,1.24,1.84,1.84,0,0,0,1.23-.52.61.61,0,0,0,.69.52c.29,0,.46-.09.88-.39v-.61a1.08,1.08,0,0,1-.48.27c-.11,0-.17-.07-.17-.26v-2.61a1.53,1.53,0,0,0-1.66-1.67,1.75,1.75,0,0,0-1.51.69v1.09a1.82,1.82,0,0,1,1.44-.83c.55,0,.82.26.82.89v.27Zm.8,1.71a1.1,1.1,0,0,1-.79.42.66.66,0,0,1-.65-.71c0-.6.67-.89,1.44-1.19Z"/><polygon class="cls-3" points="190.25 183.15 188.23 185.63 190.52 188.22 191.74 188.22 189.38 185.63 191.33 183.15 190.25 183.15"/><rect class="cls-3" x="187.28" y="180.52" width="0.91" height="7.71"/><path class="cls-3" d="M192.76,183.74v1.09a1.86,1.86,0,0,1,1.45-.83c.55,0,.82.26.82.89v.27l-.8.32c-.74.29-1.56.59-1.56,1.6a1.17,1.17,0,0,0,1.12,1.24,1.85,1.85,0,0,0,1.23-.52.61.61,0,0,0,.69.52,1.37,1.37,0,0,0,.87-.39v-.61a1,1,0,0,1-.48.27c-.11,0-.17-.07-.17-.26v-2.61a1.53,1.53,0,0,0-1.65-1.67A1.78,1.78,0,0,0,192.76,183.74Zm2.27,3.45a1.13,1.13,0,0,1-.79.42.65.65,0,0,1-.65-.71c0-.6.66-.89,1.44-1.19Z"/><path class="cls-3" d="M202.07,188.22v-5.07h-.9v3.63a1.33,1.33,0,0,1-1.09.71c-.62,0-.93-.41-.93-1.12v-3.22h-.91v3.15c0,1.29.65,2,1.58,2a1.93,1.93,0,0,0,1.35-.74v.64Z"/><path class="cls-3" d="M204.3,183.15v5.07h.91v-2.65c0-.87.49-1.56,1.11-1.56a1.44,1.44,0,0,1,.84.49l.47-.86a1.5,1.5,0,0,0-1.08-.59c-.43,0-.87.37-1.32,1.26h0v-1.16Z"/><path class="cls-3" d="M210.33,185.48c-.73.29-1.55.59-1.55,1.6a1.16,1.16,0,0,0,1.12,1.24,1.81,1.81,0,0,0,1.22-.52.62.62,0,0,0,.7.52c.28,0,.45-.09.87-.39v-.61a1,1,0,0,1-.48.27c-.11,0-.17-.07-.17-.26v-2.61a1.53,1.53,0,0,0-1.66-1.67,1.77,1.77,0,0,0-1.51.69v1.09a1.84,1.84,0,0,1,1.45-.83c.54,0,.81.26.81.89v.27Zm.8,1.71a1.1,1.1,0,0,1-.78.42.66.66,0,0,1-.66-.71c0-.6.67-.89,1.44-1.19Z"/><path class="cls-3" d="M218.18,188.22v-5.07h-.91v3.63a1.33,1.33,0,0,1-1.08.71c-.62,0-.94-.41-.94-1.12v-3.22h-.9v3.15c0,1.29.65,2,1.57,2a1.9,1.9,0,0,0,1.35-.74v.64Z"/><rect class="cls-3" x="93.52" y="181.88" width="2.61" height="0.52"/><rect class="cls-3" x="141.38" y="181.88" width="2.62" height="0.52"/><polygon class="cls-3" points="71.34 143.79 66.05 143.79 66.05 140.08 71 140.08 71 137.87 66.05 137.87 66.05 134.29 71.18 134.29 71.18 132.07 63.83 132.07 63.83 146 71.34 146 71.34 143.79"/><polygon class="cls-3" points="135.4 134.29 135.4 132.07 128.06 132.07 128.06 146 135.56 146 135.56 143.79 130.27 143.79 130.27 140.08 135.23 140.08 135.23 137.87 130.27 137.87 130.27 134.29 135.4 134.29"/><polygon class="cls-3" points="51.48 140.15 57.81 140.15 57.81 146 60.03 146 60.03 132.07 57.81 132.07 57.81 137.94 51.48 137.94 51.48 132.07 49.25 132.07 49.25 146 51.48 146 51.48 140.15"/><path class="cls-3" d="M84.77,146.18A5.51,5.51,0,0,0,89,144.61a5.9,5.9,0,0,0,1.41-4.13v-8.4H88.17v8.06a4,4,0,0,1-.7,2.78,3.43,3.43,0,0,1-2.67,1,3.1,3.1,0,0,1-2.43-1.07c-.51-.57-.66-1.18-.66-2.6v-8.18H79.49v8.59a5.48,5.48,0,0,0,1.64,4.19A5.37,5.37,0,0,0,84.77,146.18Z"/><path class="cls-3" d="M105.26,146V132.08h-2.11v10l-7.84-10H93.57V146h2.11v-9.9l7.74,9.9Z"/><path class="cls-3" d="M125.28,132.08h-2.23s-3.35,8.75-3.46,9l-3.47-9h-2.25l5.42,14H120Z"/><path class="cls-3" d="M146.93,146h2.66l-.37-.56c-.73-1.12-1-1.58-1.52-2.45s-.85-1.57-1.29-2.21a7.42,7.42,0,0,0-1.17-1.36,3.64,3.64,0,0,0,1.82-3.34,3.91,3.91,0,0,0-1.15-2.93,4.35,4.35,0,0,0-3.06-1.07h-3.3V146h2.22v-5.84h.49c.76,0,1.42.22,3,3Zm-2.14-9.94a1.86,1.86,0,0,1-.47,1.35,2.28,2.28,0,0,1-1.67.54h-.88v-3.74h.88c1.44,0,2.12.57,2.14,1.8Z"/><path class="cls-3" d="M155.11,134.29a3.72,3.72,0,0,1,2.67,1.33l.32.33.1.1v-2.91h0l-.07-.06a4.79,4.79,0,0,0-2.85-1,4,4,0,0,0-2.83,1,3.78,3.78,0,0,0-1.07,2.79c0,1.93,1.34,3,2.72,3.92l.33.23.62.43a5.78,5.78,0,0,1,.81.66,2.08,2.08,0,0,1,.75,1.54,1.57,1.57,0,0,1-1.74,1.46,3.78,3.78,0,0,1-3-1.85l-.33-.48-.11-.15.07,3.38h0a5.23,5.23,0,0,0,3.54,1.3,3.52,3.52,0,0,0,2.61-1.11,4.1,4.1,0,0,0,1-2.78c0-2.29-1.41-3.39-2.73-4.25l-1-.6c-.34-.23-.6-.42-.81-.59a1.79,1.79,0,0,1-.74-1.38C153.43,134.85,154.13,134.29,155.11,134.29Z"/><path class="cls-3" d="M183.67,146h2.22v-7.27l4.72-6.66h-2.68l-3.16,4.45-3.13-4.45H179s4.7,6.61,4.71,6.64Z"/><rect class="cls-3" x="108.9" y="132.08" width="2.21" height="13.93"/><rect class="cls-3" x="162.51" y="132.08" width="2.22" height="13.93"/><polygon class="cls-3" points="41.07 146 43.29 146 43.29 134.29 47.48 134.29 47.48 132.07 36.88 132.07 36.88 134.29 41.07 134.29 41.07 146"/><polygon class="cls-3" points="171.73 146 173.95 146 173.95 134.29 178.13 134.29 178.13 132.07 167.54 132.07 167.54 134.29 171.73 134.29 171.73 146"/><polygon class="cls-3" points="213.16 139.66 217.82 139.66 217.82 137.47 213.16 137.47 213.16 134.26 217.82 134.26 217.82 132.07 210.96 132.07 210.96 145.83 213.16 145.83 213.16 139.66"/><path class="cls-3" d="M201.66,146.19a6.37,6.37,0,0,0,4.93-2.15,7.72,7.72,0,0,0,0-9.86,6.65,6.65,0,0,0-9.71,0,7.29,7.29,0,0,0-1.82,4.94,7.39,7.39,0,0,0,1.78,4.92A6.36,6.36,0,0,0,201.66,146.19Zm-3.11-10.53a4.22,4.22,0,0,1,3.14-1.36c2.57,0,4.43,2,4.43,4.83a5.07,5.07,0,0,1-1.26,3.46,4.23,4.23,0,0,1-3.17,1.37,4.16,4.16,0,0,1-3.14-1.37,5.39,5.39,0,0,1,0-6.93Z"/><path class="cls-3" d="M159.3,151.51h-2.63l-9.15,23.78h3.89l2.59-6.73h8.19l2.73,6.73h3.9Zm-3.85,13.3c.09-.24,2.35-6.31,2.5-6.74.18.42,2.61,6.49,2.7,6.74Z"/><polygon class="cls-3" points="144.22 171.53 134.94 171.53 134.94 151.65 131.17 151.65 131.17 175.29 144.22 175.29 144.22 171.53"/><path class="cls-3" d="M43.28,168.56h8.19l2.75,6.73H58.1l-9.51-23.78H46L36.8,175.29h3.9S43.24,168.68,43.28,168.56Zm4-10.49,2.7,6.74h-5.2Z"/><path class="cls-3" d="M103,173.41V168.8l-.15.11-.5.35a12.11,12.11,0,0,1-6.92,2.51,7.67,7.67,0,0,1-5.72-2.29,8.39,8.39,0,0,1-2.19-6,8.64,8.64,0,0,1,2.22-6,7.54,7.54,0,0,1,5.56-2.36,12.26,12.26,0,0,1,6.86,2.31l.48.31.16.1-.18-4.6-.06,0a16.8,16.8,0,0,0-7.23-1.92c-6.75,0-11.66,5.24-11.66,12.47a12.8,12.8,0,0,0,2.73,7.74,10.8,10.8,0,0,0,8.75,4,14.37,14.37,0,0,0,7.8-2.16Z"/><path class="cls-3" d="M115.92,162.85l9.28-11.2h-4.74l-8,9.72v-9.72h-3.76v23.64h3.76V164.64l9.87,10.65h5.16Z"/><path class="cls-3" d="M216.3,155.48a10.7,10.7,0,0,0-8.62-3.83h-8.39v23.64h8.42a10.74,10.74,0,0,0,8.29-3.65,12.46,12.46,0,0,0,3-8.17A12.77,12.77,0,0,0,216.3,155.48Zm-9,16.05h-4.29V155.4h4.14a7.81,7.81,0,0,1,6,2.39,8.35,8.35,0,0,1,1.93,5.68C215.16,166.46,213.51,171.53,207.34,171.53Z"/><path class="cls-3" d="M69.72,175.6a9.4,9.4,0,0,0,7.16-2.67,10,10,0,0,0,2.38-7V151.66H75.49v13.69c0,2.41-.34,3.77-1.19,4.71a5.79,5.79,0,0,1-4.52,1.71A5.27,5.27,0,0,1,65.65,170c-.86-1-1.13-2-1.13-4.42V151.66H60.77v14.61a9.27,9.27,0,0,0,2.78,7.09A9.09,9.09,0,0,0,69.72,175.6Z"/><path class="cls-3" d="M189.53,168.56l-13.31-16.9h-2.95v23.64h3.58v-16.8L190,175.3h3.13V151.66h-3.59Z"/><polygon class="cls-3" points="44.41 205.88 38.68 199.15 37.04 199.15 37.04 208.8 38.86 208.8 38.86 201.96 44.63 208.8 46.23 208.8 46.23 199.15 44.41 199.15 44.41 205.88"/><polygon class="cls-3" points="57.85 204.6 62.03 204.6 62.03 203.14 57.85 203.14 57.85 200.61 62.22 200.61 62.22 199.15 55.98 199.15 55.98 208.8 62.31 208.8 62.31 207.34 57.85 207.34 57.85 204.6"/><polygon class="cls-3" points="81.65 205.12 79.11 199.15 77.53 199.15 75.01 205.1 72.61 199.15 70.68 199.15 74.66 208.92 75.26 208.92 78.31 201.77 81.35 208.92 81.98 208.92 85.95 199.15 84.04 199.15 81.65 205.12"/><polygon class="cls-3" points="114.19 199.15 105.71 199.15 105.71 200.61 110.98 200.61 105.37 208.8 114.22 208.8 114.22 207.34 108.58 207.34 114.19 199.15"/><polygon class="cls-3" points="125.14 204.6 129.32 204.6 129.32 203.14 125.14 203.14 125.14 200.61 129.5 200.61 129.5 199.15 123.27 199.15 123.27 208.8 129.6 208.8 129.6 207.34 125.14 207.34 125.14 204.6"/><path class="cls-3" d="M142,199.15l-4,9.65h2l.93-2.35h4.28l1,2.35h2l-4.26-9.65Zm-.53,5.88,1.49-3.81,1.63,3.81Z"/><polygon class="cls-3" points="158.75 199.15 156.89 199.15 156.89 208.8 163.43 208.8 163.43 207.34 158.75 207.34 158.75 199.15"/><path class="cls-3" d="M175.33,199.15l-4,9.65h2l.94-2.35h4.28l1,2.35h2l-4.26-9.65ZM174.8,205l1.49-3.81,1.62,3.81Z"/><polygon class="cls-3" points="197.62 205.88 191.89 199.15 190.26 199.15 190.26 208.8 192.08 208.8 192.08 201.96 197.84 208.8 199.44 208.8 199.44 199.15 197.62 199.15 197.62 205.88"/><path class="cls-3" d="M215.91,199.77a5.65,5.65,0,0,0-2.67-.62h-4v9.65h3.93a6.08,6.08,0,0,0,2.75-.6,4.36,4.36,0,0,0,1.85-1.7,4.77,4.77,0,0,0,.66-2.51,4.9,4.9,0,0,0-.65-2.5A4.41,4.41,0,0,0,215.91,199.77Zm-.38,6.64a3.4,3.4,0,0,1-2.49.93h-2v-6.73H213a3.54,3.54,0,0,1,2.54.9,3.68,3.68,0,0,1,0,4.9Z"/><rect class="cls-3" x="36.94" y="194.26" width="181.87" height="1.06"/><path class="cls-3" d="M91.25,36.65V73.74c0,8.73,6.52,34.1,36.29,46.55l.48.21.49-.21c29.75-12.45,36.27-37.82,36.27-46.55V36.65Z"/><path class="cls-1" d="M99.15,61.21h0l-.23-.12a11.06,11.06,0,0,0-5.58-1.52l-.37,0h-.11V73.74c0,.3,1,30.61,35.16,45,34.19-14.39,35.14-44.71,35.14-45V59.63h-.47a10.9,10.9,0,0,0-5.58,1.52,12,12,0,0,1-11.92,0,11.23,11.23,0,0,0-11.2,0l-.1.05a12,12,0,0,1-11.83,0l-.06,0a11.24,11.24,0,0,0-11.14,0l-.16.1h0A11.93,11.93,0,0,1,99.15,61.21Z"/><path class="cls-1" d="M103.11,43.25a5.06,5.06,0,0,1,3.75-1.71c5.45-.17,8.22,3.92,8.1,7.19a4.74,4.74,0,0,1-3.35,4.7,3.68,3.68,0,0,0,.59,1.9c0,.08.16.17,0,.38a1.64,1.64,0,0,1-.16.29.39.39,0,0,0,0,.29,1.19,1.19,0,0,1-.2.86,4,4,0,0,0,.1,1.57c0,.11-.07.11-.13,0a2.48,2.48,0,0,1-.71-1.31,3.51,3.51,0,0,0-1.68,1.72c0,.08-.17.16-.19,0a2.18,2.18,0,0,1,.92-1.94,2,2,0,0,0-1.47.3s-.19.1-.07-.07.33-.74,1.75-.94a7.59,7.59,0,0,0,.43-.87,4.92,4.92,0,0,0-.64-1.82,3.67,3.67,0,0,0-1.78.64.33.33,0,0,0-.13.26V55a.55.55,0,0,1-.42.44s-1.23.41-1.8.68a2.52,2.52,0,0,0-.92.77,2,2,0,0,1-.81.7,1.12,1.12,0,0,0-.51.3,3,3,0,0,1-.47.43,2.71,2.71,0,0,0-.7.92c0,.06-.1.15-.11,0s0-.45,0-.45a2.41,2.41,0,0,1,.65-1.18.48.48,0,0,1-.18-.06,7.7,7.7,0,0,0-2.62.33c-.06,0-.13,0-.06-.07s.46-1,2.3-1c0-.17-.82-.59-1.25-.59-.14,0-.06-.07,0-.09a1.92,1.92,0,0,1,1.87.23,4.82,4.82,0,0,1,1.06-.3,15.92,15.92,0,0,1,1.83-1.47,1.34,1.34,0,0,1,0-.49h0a4.16,4.16,0,0,1-.57-2.4,4.71,4.71,0,0,1-2.8-1.81A4.16,4.16,0,0,1,99.6,47.5a18.24,18.24,0,0,0-4.7,5.74c-.07,0-.1,0-.15,0a2.64,2.64,0,0,1-.27-1.66,22.59,22.59,0,0,1,3.23-5.31,3.37,3.37,0,0,1,3.35-4,2.8,2.8,0,0,1,2,1Z"/><path class="cls-3" d="M108.57,43.7s-.07,0,0-.05a1.55,1.55,0,0,1,1-.43,3.3,3.3,0,0,0-2.66.05l0-.05a2.79,2.79,0,0,1,.76-.75,3.25,3.25,0,0,0-2.28.81v-.11a2.33,2.33,0,0,1,.59-.77c-1.71.05-3,2.22-3,2.22a1.89,1.89,0,0,0-1.78-1.55c-1.09-.17-3.52,1.32-2.58,3.33A31,31,0,0,0,95.45,51c0,.05,0,0,0,.09a17,17,0,0,1,4.3-4.55c.16.13,1.09,2.55,3.24,2.68.24.18,1.31,2,3.21,1.79a8.08,8.08,0,0,0,.35,2.48l.08.11c0-.06,0,0,0,0a7.16,7.16,0,0,1,2.12-1.24,7.08,7.08,0,0,1,.64-1.49,3.54,3.54,0,0,0,2.86-3.3C112.3,45.57,110.54,43.44,108.57,43.7ZM99.41,46a.45.45,0,0,1,0-.9.45.45,0,1,1,0,.9Z"/><path class="cls-1" d="M126.15,43.25a5,5,0,0,1,3.74-1.71c5.45-.17,8.23,3.92,8.1,7.19a4.74,4.74,0,0,1-3.35,4.7,3.8,3.8,0,0,0,.59,1.9c0,.08.16.17,0,.38a1.59,1.59,0,0,1-.15.29.33.33,0,0,0,0,.29,1.19,1.19,0,0,1-.2.86,4,4,0,0,0,.1,1.57c0,.11-.07.11-.13,0a2.47,2.47,0,0,1-.7-1.31,3.49,3.49,0,0,0-1.69,1.72c0,.08-.16.16-.19,0a2.18,2.18,0,0,1,.92-1.94,2,2,0,0,0-1.47.3s-.19.1-.07-.07.33-.74,1.75-.94a7.12,7.12,0,0,0,.44-.87,5.15,5.15,0,0,0-.65-1.82,3.71,3.71,0,0,0-1.78.64.33.33,0,0,0-.13.26V55s-.05.32-.42.44c0,0-1.23.41-1.79.68a2.44,2.44,0,0,0-.93.77,1.82,1.82,0,0,1-.81.7,1.17,1.17,0,0,0-.51.3,3,3,0,0,1-.47.43,2.6,2.6,0,0,0-.69.92c0,.06-.11.15-.11,0s0-.45,0-.45a2.49,2.49,0,0,1,.65-1.18.48.48,0,0,1-.18-.06,7.73,7.73,0,0,0-2.62.33c-.06,0-.12,0-.06-.07s.46-1,2.3-1c0-.17-.82-.59-1.25-.59-.13,0-.06-.07,0-.09a1.93,1.93,0,0,1,1.87.23,4.82,4.82,0,0,1,1.06-.3,16.83,16.83,0,0,1,1.83-1.47,1.34,1.34,0,0,1,0-.49h0a4.24,4.24,0,0,1-.57-2.4,4.74,4.74,0,0,1-2.8-1.81,4.18,4.18,0,0,1-3.11-2.36,18.24,18.24,0,0,0-4.7,5.74c-.06,0-.1,0-.15,0a2.71,2.71,0,0,1-.27-1.66,22.59,22.59,0,0,1,3.23-5.31,3.38,3.38,0,0,1,3.35-4,2.83,2.83,0,0,1,2.06,1Z"/><path class="cls-3" d="M131.59,43.7s-.06,0,0-.05a1.58,1.58,0,0,1,1-.43,3.3,3.3,0,0,0-2.66.05v-.05a2.83,2.83,0,0,1,.75-.75,3.25,3.25,0,0,0-2.28.81v-.11a2.33,2.33,0,0,1,.59-.77c-1.71.05-3,2.22-3,2.22a1.89,1.89,0,0,0-1.78-1.55c-1.08-.17-3.51,1.32-2.58,3.33A31.26,31.26,0,0,0,118.49,51c0,.05,0,0,0,.09a16.94,16.94,0,0,1,4.29-4.55c.16.13,1.1,2.55,3.24,2.68.24.18,1.31,2,3.21,1.79a8.08,8.08,0,0,0,.35,2.48l.08.11c0-.06,0,0,0,0a7.16,7.16,0,0,1,2.12-1.24,7.08,7.08,0,0,1,.64-1.49,3.54,3.54,0,0,0,2.86-3.3C135.33,45.57,133.57,43.44,131.59,43.7ZM122.45,46a.45.45,0,1,1,.45-.45A.45.45,0,0,1,122.45,46Z"/><path class="cls-1" d="M149,43.25a5.09,5.09,0,0,1,3.75-1.71c5.46-.17,8.22,3.92,8.1,7.19a4.73,4.73,0,0,1-3.35,4.7,3.8,3.8,0,0,0,.59,1.9c0,.08.17.17,0,.38A1.59,1.59,0,0,1,158,56a.37.37,0,0,0,0,.29,1.19,1.19,0,0,1-.2.86,4.19,4.19,0,0,0,.1,1.57c0,.11-.06.11-.13,0a2.47,2.47,0,0,1-.7-1.31,3.53,3.53,0,0,0-1.69,1.72c0,.08-.16.16-.19,0a2.18,2.18,0,0,1,.92-1.94,2,2,0,0,0-1.47.3s-.19.1-.07-.07.33-.74,1.75-.94a6.18,6.18,0,0,0,.43-.87,4.75,4.75,0,0,0-.64-1.82,3.68,3.68,0,0,0-1.77.64.31.31,0,0,0-.14.26V55s0,.32-.42.44c0,0-1.23.41-1.8.68a2.53,2.53,0,0,0-.91.77,2,2,0,0,1-.82.7,1.17,1.17,0,0,0-.51.3,3.46,3.46,0,0,1-.46.43,2.48,2.48,0,0,0-.7.92c0,.06-.11.15-.11,0s0-.45,0-.45a2.41,2.41,0,0,1,.65-1.18.39.39,0,0,1-.17-.06,7.75,7.75,0,0,0-2.63.33c-.06,0-.12,0-.06-.07s.46-1,2.3-1c0-.17-.82-.59-1.25-.59-.13,0-.05-.07,0-.09a1.93,1.93,0,0,1,1.87.23,4.82,4.82,0,0,1,1.06-.3A15.92,15.92,0,0,1,152,54.57a2.06,2.06,0,0,1,0-.49h0a4.18,4.18,0,0,1-.58-2.4,4.69,4.69,0,0,1-2.79-1.81,4.18,4.18,0,0,1-3.12-2.36,18.4,18.4,0,0,0-4.7,5.74c-.06,0-.1,0-.15,0a2.71,2.71,0,0,1-.27-1.66,22.59,22.59,0,0,1,3.23-5.31,3.38,3.38,0,0,1,3.35-4,2.78,2.78,0,0,1,2.05,1Z"/><path class="cls-3" d="M154.49,43.7s-.07,0,0-.05a1.58,1.58,0,0,1,1-.43,3.32,3.32,0,0,0-2.67.05v-.05a2.83,2.83,0,0,1,.75-.75,3.25,3.25,0,0,0-2.28.81v-.11a2,2,0,0,1,.58-.77c-1.71.05-3,2.22-3,2.22A1.9,1.9,0,0,0,147,43.07c-1.09-.17-3.51,1.32-2.58,3.33A31.89,31.89,0,0,0,141.37,51c0,.05,0,0,0,.09a17.13,17.13,0,0,1,4.3-4.55c.16.13,1.1,2.55,3.24,2.68.24.18,1.31,2,3.21,1.79a8.4,8.4,0,0,0,.35,2.48l.08.11c0-.06,0,0,0,0a7.3,7.3,0,0,1,2.12-1.24,7.08,7.08,0,0,1,.64-1.49,3.55,3.55,0,0,0,2.87-3.3C158.22,45.57,156.46,43.44,154.49,43.7ZM145.34,46a.45.45,0,1,1,0-.9.45.45,0,1,1,0,.9Z"/><path class="cls-3" d="M130.9,96.37l-.53.35.56.3a1.11,1.11,0,0,1-.52,2.09h-4.79a1.11,1.11,0,0,1-.53-2.09l.56-.3-.52-.35a6.73,6.73,0,0,0-3.77-1.17,6.9,6.9,0,0,0-3.81,1.17A7.23,7.23,0,0,1,113,97.53a9.5,9.5,0,0,1-6.55-2.39l-.11-.1h-1.19l-.12.14a.9.9,0,0,1-.69.32.82.82,0,1,1,0-1.63.87.87,0,0,1,.69.32l.12.14h1.43V92.58h-1.43l-.11.13a.93.93,0,0,1-.7.32.82.82,0,1,1,0-1.63.91.91,0,0,1,.7.32l.11.14h1.43V90.11h-1.43l-.11.14a.9.9,0,0,1-.69.31.82.82,0,1,1,0-1.63.88.88,0,0,1,.69.33l.12.13h1.42V87.65H105.2l-.11.13a.93.93,0,0,1-.7.32.82.82,0,1,1,0-1.63.88.88,0,0,1,.7.32l.11.14h1.42V85.18h-1.41l-.12.14a.9.9,0,0,1-.69.31.82.82,0,1,1,0-1.63.93.93,0,0,1,.7.32l.11.14h1.41V82.71h-1.41l-.11.14a.91.91,0,0,1-.7.32.82.82,0,1,1,0-1.64.89.89,0,0,1,.7.33l.12.14h1.4V80.25h-1.41l-.11.13a.91.91,0,0,1-.7.32.82.82,0,1,1,0-1.63.91.91,0,0,1,.7.32l.11.14h1.12l1.2-.61V94.75l.17.32c3.29,2.07,6.59,2.28,9.54.6,3.12-1.76,7.5-1.85,10.08,1.9H126.1a.38.38,0,0,0,0,.76h3.84a.38.38,0,0,0,0-.76h-1.23c2.62-3.81,7-3.44,10.09-1.89,2.72,1.38,5.92,1.18,9.49-.59l.21-.34V78.93l1.2.61h1.11l.11-.14a1,1,0,0,1,.71-.32.82.82,0,1,1,0,1.63.91.91,0,0,1-.7-.32l-.12-.13h-1.4V82h1.4l.11-.14a.92.92,0,0,1,.71-.33.82.82,0,1,1,0,1.64.91.91,0,0,1-.7-.32l-.12-.14h-1.4v1.75h1.41l.11-.14a.93.93,0,0,1,.7-.32.82.82,0,1,1,0,1.63.91.91,0,0,1-.69-.31l-.12-.14h-1.41v1.75h1.41l.12-.14a.88.88,0,0,1,.7-.32.82.82,0,1,1,0,1.63.91.91,0,0,1-.7-.32l-.11-.13h-1.42v1.74h1.42l.11-.13a.9.9,0,0,1,.7-.33.82.82,0,1,1,0,1.63.92.92,0,0,1-.7-.31l-.11-.14h-1.42v1.75h1.43l.11-.14a.88.88,0,0,1,.7-.32.82.82,0,1,1,0,1.63.93.93,0,0,1-.7-.32l-.11-.13h-1.43v1.75h1.43l.11-.14a.89.89,0,0,1,.7-.32.82.82,0,1,1,0,1.63.94.94,0,0,1-.7-.32l-.11-.14h-1.19l-.11.1A9.5,9.5,0,0,1,143,97.53a7.28,7.28,0,0,1-4.52-1.16A6.74,6.74,0,0,0,130.9,96.37Z"/><path class="cls-3" d="M109.29,94.21c2.43,1.29,4.43,1.64,8-.23a8.91,8.91,0,0,1,10.33,1.56v1.18c-2.87-3.71-7.47-3.57-10.77-1.71-2.65,1.5-5.61,1.34-8.58-.47v-16l.8-.4V94.1Z"/><path class="cls-3" d="M109.84,93.64V77.77l.1,0a11.15,11.15,0,0,0,7.58-.75c3.35-1.41,6.75-1,10.12,1.34V94.52a9.92,9.92,0,0,0-6.28-2.31,9.45,9.45,0,0,0-4.4,1.1C113.75,95,112,94.75,109.84,93.64Z"/><path class="cls-3" d="M138.72,94c3.59,1.86,5.58,1.52,8,.23l.2-.11V78.15l.8.4v16c-3.26,1.56-6.15,1.72-8.6.49-3.24-1.64-7.83-2.05-10.75,1.71V95.54A8.88,8.88,0,0,1,138.72,94Z"/><path class="cls-3" d="M128.39,94.52V78.31c3.37-2.3,6.77-2.76,10.12-1.34a11.12,11.12,0,0,0,7.57.75l.1,0V93.64c-2.16,1.11-3.9,1.34-7.11-.33A9.62,9.62,0,0,0,128.39,94.52Z"/><polygon class="cls-3" points="146.35 74.86 142.06 71.62 137.78 74.86 139.42 69.69 134.91 66.44 140.41 66.44 142.06 61.23 143.72 66.44 149.23 66.44 144.71 69.69 146.35 74.86"/><polygon class="cls-3" points="118.23 74.9 113.94 71.66 109.65 74.9 111.3 69.73 106.78 66.48 112.28 66.48 113.94 61.28 115.6 66.48 121.1 66.48 116.59 69.73 118.23 74.9"/><polygon class="cls-3" points="123.72 115.48 125.37 110.31 120.85 107.06 126.35 107.06 128.01 101.86 129.67 107.06 135.17 107.06 130.65 110.31 132.3 115.48 128.01 112.24 123.72 115.48"/><rect class="cls-4" x="0.14" width="728.77" height="245.59"/></g></g></svg>