<svg width="363" height="130" viewBox="0 0 363 130" fill="none" xmlns="http://www.w3.org/2000/svg">
<path d="M187.48 74.4C177.293 74.4 169.4 71.9733 163.8 67.12C158.2 62.2133 155.4 54.96 155.4 45.36C155.4 35.8133 158.2 28.6133 163.8 23.76C169.4 18.8533 177.48 16.4 188.04 16.4H202.44C213 16.4 221.08 18.8533 226.68 23.76C232.28 28.6133 235.08 35.8133 235.08 45.36C235.08 54.96 232.28 62.2133 226.68 67.12C221.08 71.9733 213.133 74.4 202.84 74.4H201.8V82.8H189V74.4H187.48ZM201.8 54V64C208.68 63.9467 213.773 62.4533 217.08 59.52C220.387 56.5867 222.04 51.8667 222.04 45.36C222.04 38.8533 220.36 34.1333 217 31.2C213.693 28.2667 208.547 26.8 201.56 26.8H188.92C181.987 26.8 176.84 28.2667 173.48 31.2C170.12 34.1333 168.44 38.8533 168.44 45.36C168.44 51.8667 170.12 56.6133 173.48 59.6C176.84 62.5333 182.013 64 189 64V54H201.8Z" fill="white"/>
<path d="M243.053 74V16.8H255.853V63.6H297.693V74H243.053Z" fill="white"/>
<path d="M332.728 74.4C322.168 74.4 314.087 71.9733 308.487 67.12C302.887 62.2133 300.087 54.96 300.087 45.36C300.087 35.8133 302.887 28.5867 308.487 23.68C314.087 18.7733 322.168 16.3467 332.728 16.4L361.527 16.56V26.8H333.608C326.674 26.8 321.528 28.2667 318.168 31.2C314.808 34.1333 313.128 38.8533 313.128 45.36C313.128 51.8667 314.808 56.6133 318.168 59.6C321.528 62.5333 326.674 64 333.608 64H362.328V74.4H332.728Z" fill="white"/>
<path d="M162.96 122V101.98H179.732C181.804 101.98 183.409 102.503 184.548 103.548C185.705 104.593 186.284 106.18 186.284 108.308C186.284 110.436 185.705 112.023 184.548 113.068C183.409 114.113 181.804 114.636 179.732 114.636H167.44V122H162.96ZM179.2 105.62H167.44V110.968L179.2 110.996C180.021 110.996 180.647 110.791 181.076 110.38C181.524 109.969 181.748 109.279 181.748 108.308C181.748 107.319 181.524 106.628 181.076 106.236C180.647 105.825 180.021 105.62 179.2 105.62Z" fill="white"/>
<path d="M188.233 118.332V114.664L198.761 102.008H204.277L193.581 114.692H204.389V110.1H208.729V114.692H213.433V118.332H208.729V122H204.389V118.332H188.233Z" fill="white"/>
<path d="M225.878 122V101.98H242.65C244.722 101.98 246.327 102.503 247.466 103.548C248.623 104.593 249.202 106.18 249.202 108.308C249.202 110.436 248.623 112.023 247.466 113.068C246.327 114.113 244.722 114.636 242.65 114.636H230.358V122H225.878ZM242.118 105.62H230.358V110.968L242.118 110.996C242.939 110.996 243.565 110.791 243.994 110.38C244.442 109.969 244.666 109.279 244.666 108.308C244.666 107.319 244.442 106.628 243.994 106.236C243.565 105.825 242.939 105.62 242.118 105.62Z" fill="white"/>
<path d="M251.571 122V107.58H262.603C264.227 107.58 265.422 107.991 266.187 108.812C266.953 109.615 267.335 110.679 267.335 112.004V115H263.219V112.508C263.219 111.388 262.659 110.828 261.539 110.828H255.687V122H251.571Z" fill="white"/>
<path d="M277.502 122.14C275.001 122.14 273.05 121.524 271.65 120.292C270.25 119.041 269.55 117.212 269.55 114.804C269.55 112.377 270.25 110.548 271.65 109.316C273.05 108.065 275.001 107.44 277.502 107.44H282.682C285.184 107.44 287.134 108.065 288.534 109.316C289.934 110.548 290.634 112.377 290.634 114.804C290.634 117.212 289.934 119.041 288.534 120.292C287.134 121.524 285.184 122.14 282.682 122.14H277.502ZM277.502 118.92H282.682C283.896 118.92 284.82 118.584 285.454 117.912C286.108 117.24 286.434 116.204 286.434 114.804C286.434 113.385 286.108 112.34 285.454 111.668C284.82 110.996 283.896 110.66 282.682 110.66H277.502C276.289 110.66 275.356 110.996 274.702 111.668C274.068 112.34 273.75 113.385 273.75 114.804C273.75 116.204 274.068 117.24 274.702 117.912C275.356 118.584 276.289 118.92 277.502 118.92Z" fill="white"/>
<path d="M293.049 128.3V107.58H297.109V128.3H293.049ZM293.021 105.2V102.036H297.137V105.2H293.021Z" fill="white"/>
<path d="M307.471 122.14C304.97 122.14 303.019 121.524 301.619 120.292C300.219 119.041 299.519 117.212 299.519 114.804C299.519 112.377 300.219 110.548 301.619 109.316C303.019 108.065 304.97 107.44 307.471 107.44H314.471C316.114 107.44 317.364 107.832 318.223 108.616C319.1 109.381 319.539 110.483 319.539 111.92C319.539 114.851 317.85 116.316 314.471 116.316H303.887C304.279 118.052 305.474 118.92 307.471 118.92H318.811V122.14H307.471ZM307.471 110.66C305.548 110.66 304.363 111.472 303.915 113.096H314.275C314.648 113.096 314.938 112.984 315.143 112.76C315.367 112.536 315.479 112.228 315.479 111.836C315.479 111.052 315.078 110.66 314.275 110.66H307.471Z" fill="white"/>
<path d="M329.455 122.14C326.954 122.14 325.003 121.524 323.603 120.292C322.203 119.041 321.503 117.212 321.503 114.804C321.503 112.377 322.203 110.548 323.603 109.316C325.003 108.065 326.954 107.44 329.455 107.44H338.835V110.66H329.455C328.242 110.66 327.309 110.996 326.655 111.668C326.021 112.34 325.703 113.385 325.703 114.804C325.703 116.204 326.021 117.24 326.655 117.912C327.309 118.584 328.242 118.92 329.455 118.92H339.115V122.14H329.455Z" fill="white"/>
<path d="M349.255 122C347.631 122 346.436 121.599 345.671 120.796C344.906 119.975 344.523 118.901 344.523 117.576V110.8H340.351V107.58H344.523V103.156H348.583V107.58H354.575V110.8H348.583V117.072C348.583 118.211 349.143 118.78 350.263 118.78H355.359V122H349.255Z" fill="white"/>
<path d="M121.062 57.0732C123.35 46.4387 118.357 34.3067 114.19 25.8943C110.389 18.2199 95.5277 5.39097 71.7177 1.2698C67.5378 0.64472 61.0651 0.0013189 56.4281 1.51372e-06C41.849 -0.00413412 11.3792 8.46485 2.82549 38.6402C-0.174222 49.2226 -0.910372 59.8089 1.22158 69.3408C3.90074 77.8058 12.1043 90.1438 25.818 100.037C26.421 113.044 25.1381 118.885 22.1152 128.725C21.6764 130.153 22.1152 129.995 23.5858 129.995H83.4536C84.3522 129.995 85.4143 128.938 85.6896 128.621C86.9967 127.113 87.4005 126.361 87.9755 125.927C88.7107 125.372 88.8741 124.94 90.5898 125.212C93.5087 125.677 95.0785 126.006 98.0242 126.879C107.664 129.736 111.161 127.27 113.487 125.445C115.611 123.778 116.16 121.239 116.16 119.622C116.16 118.034 115.626 117.004 115.626 114.858C115.626 113.27 115.112 111.724 118.299 107.977C119.851 106.152 121.314 103.457 119.756 102.051C118.857 101.241 119.007 100.394 119.901 99.5077L119.95 99.4599C120.765 98.6528 121.239 98.1844 122.04 96.8612C120.97 95.2732 120.436 94.7439 120.436 93.1559C120.436 92.0973 121.145 92.1747 122.86 91.8807C125.637 91.4044 127.767 89.1521 128.992 87.7236C127.931 84.3904 126.882 81.7285 125.82 79.2683C124.067 75.2073 122.563 71.312 121.591 67.1138C121.042 65.3826 120.534 64.1566 120.534 62.3577C120.534 60.2439 120.698 58.7708 121.062 57.0732Z" fill="white"/>
<path d="M122.506 78.4143C123.485 80.7521 124.841 83.9195 125.82 87.0868C124.69 88.4442 121.752 89.8771 119.19 90.3295C117.608 90.609 117.382 90.7066 117.306 92.064C117.306 94.6281 117.909 95.6838 118.512 96.8151C117.758 98.0971 117.231 98.7757 116.327 99.7561C115.631 100.51 115.724 101.264 116.402 102.019C117.716 103.48 117.758 104.507 116.327 106.242C113.388 109.801 112.936 110.918 112.936 112.35C112.936 114.389 112.861 115.291 113.162 116.875C113.45 118.384 113.388 121.249 111.429 122.832C109.284 124.566 105.176 126.302 96.2849 123.587C93.5683 122.757 92.1206 122.445 89.4285 122.002C87.8463 121.743 87.6956 122.154 87.0174 122.682C86.4872 123.094 84.8325 124.491 83.627 125.925C83.3731 126.226 83.0242 126.754 82.1953 126.754L77.0719 126.829C76.0924 126.829 74.6608 126.302 74.6608 125.02L74.4348 113.482C74.4348 112.878 74.0775 110.908 73.3046 109.258C71.1851 104.733 66.825 103.527 62.7563 106.845C61.3692 107.976 59.7414 109.407 57.4067 110.615C55.2217 111.747 53.4135 111.973 51.4545 109.107C50.7842 108.127 48.7114 103.67 50.2489 97.0412C51.2459 92.7428 54.0368 90.0279 57.2561 92.2903C60.7973 94.7789 63.359 98.8512 68.3318 97.1921C71.9484 95.9101 73.832 92.8181 73.6813 87.0114C73.6813 83.6178 73.38 78.4897 73.38 71.7025V67.3286C73.38 66.4601 73.38 66.3482 74.2841 66.3482H78.7295C80.6131 66.3482 88.7504 65.5941 93.3465 65.9712L96.1342 66.3482C97.0384 66.499 97.3398 66.5745 97.3398 67.6303V70.1943C97.3398 71.0239 97.0384 71.6272 96.3603 72.4567C95.8832 73.0404 94.3233 75.1059 93.1957 76.6798C90.3326 80.6767 91.3121 85.4277 95.9082 87.8409C99.6001 89.7794 106.437 90.3599 112.333 87.7655C119.566 84.5832 118.587 79.3193 116.478 76.1519C115.423 74.5682 111.882 72.8337 111.504 67.7057C111.504 66.7253 111.774 66.4935 112.711 66.2729L116.327 65.6696C117.683 65.4433 118.023 65.4766 118.286 66.65C119.181 70.6392 120.888 74.5554 122.506 78.4143Z" fill="url(#paint0_linear_299_39)"/>
<path d="M111.957 27.8123C115.799 35.8061 120.094 47.118 117.985 57.2233C117.647 58.8364 117.59 60.5607 117.74 62.3514C117.815 63.2563 117.457 63.7088 116.1 63.7843C114.936 63.8489 114.198 63.9841 113.087 64.2367C109.437 65.0663 108.34 69.4402 111.731 73.7387C112.92 75.247 113.84 76.3027 115.196 78.0372C117.608 81.1208 115.394 84.9557 110.525 86.4834C104.749 88.296 99.9768 87.7655 97.2644 86.4834C95.6068 85.7 91.7642 83.467 94.4767 78.0372C94.7404 77.5093 96.4357 75.247 97.8672 73.7387C99.084 72.4567 101.559 66.2729 95.6822 64.2367C94.2506 63.7407 87.7709 64.2367 82.7227 64.2367L73.9074 64.4629C73.38 64.4629 73.1539 64.3121 73.1539 63.558L72.7772 40.0292C73.38 37.0881 77.3869 36.7111 79.3322 38.4456C80.8132 39.7661 81.7433 40.6749 83.3255 41.7637C86.9422 44.2523 90.9354 43.9507 93.3465 41.6883C98.2063 37.1281 97.7521 24.4941 93.3465 19.4416C89.7299 15.2938 85.4352 15.8217 81.8186 19.4416C80.5378 20.7235 79.0241 22.1078 78.5788 22.458C77.4107 23.3767 72.7018 24.7958 72.4758 19.5169C72.2184 13.5065 72.0878 10.1732 72.0238 4.22764C93.9826 8.14374 108.451 20.5198 111.957 27.8123Z" fill="url(#paint1_linear_299_39)"/>
<path d="M26.0223 125.616C28.7922 116.256 29.4946 110.511 28.9419 98.1379C16.3752 88.7273 7.61199 79.6324 4.46113 67.5185C13.37 67.1868 23.6265 67.7241 27.6693 66.2054C31.4873 64.7711 30.3644 58.659 27.6693 56.1652C21.3057 50.2768 23.2522 45.9274 29.3911 43.7846C35.2305 41.7464 41.2549 42.8788 42.9416 43.7846C49.8292 47.4837 45.7117 53.372 42.9416 56.1652C38.9731 60.1669 40.6208 66.5829 45.7865 66.5829L69.1443 66.2809C70.2409 66.3346 71.0518 66.7339 71.0159 67.5642C70.4171 81.4545 73.0373 91.9624 69.0694 94.5898C64.0535 97.9115 62.2782 94.5898 58.9628 91.9477C54.3211 88.2487 49.8292 90.1359 48.0325 96.8546C47.5084 98.8142 47.2988 103.12 48.0325 106.82C49.1555 112.481 54.3959 115.225 58.9628 111.726C60.8343 110.292 62.7336 109.084 64.5776 107.726C68.4706 104.857 71.3769 109.763 71.9143 112.783C72.8599 118.095 72.5922 120.958 72.663 126.296C72.604 126.574 72.5615 126.727 71.9143 126.824H27.3698C26.0223 126.824 25.6202 126.975 26.0223 125.616Z" fill="url(#paint2_linear_299_39)"/>
<path d="M5.50925 40.6896C13.2952 11.0882 41.5924 3.17073 57.4654 3.17073C61.7146 3.17073 65.7633 3.50274 69.5935 4.09733L70.0427 19.4768C70.0427 21.6659 70.8866 23.6287 72.2138 24.6101C73.3367 25.4405 76.0346 25.5914 77.9784 24.6101C78.972 24.1085 79.5131 23.5532 80.449 22.7983C81.5718 21.8924 81.7591 21.2129 84.1173 19.6277C86.1387 18.2688 88.2348 18.1406 89.6573 19.4768C91.6237 21.3238 92.25 21.515 93.5503 26.0444C94.3738 28.9131 94.1894 33.7444 93.5503 36.3866C92.053 42.5768 86.567 42.5014 83.9676 40.6141C82.096 39.2553 80.6736 37.748 79.7003 37.066C75.2833 33.9709 70.3422 36.6131 70.3422 40.6141L70.7914 63.5633C70.7914 64.1672 70.7165 64.4691 69.9678 64.4691L45.1876 64.7711C43.2411 64.6956 41.0701 61.072 43.6155 58.1279C44.548 57.0492 44.9248 56.7367 45.7865 55.5613C49.2303 51.7867 48.7062 47.0874 47.5084 45.2946C42.7171 38.1229 27.2289 40.5386 23.5517 45.2946C20.1079 49.7485 22.803 53.4308 23.5517 54.3533C24.8992 56.0142 26.8859 57.977 27.22 58.5054C30.5141 63.7142 27.22 65.224 23.7762 65.224L4.03052 65.677C2.55632 58.5905 2.93735 50.4677 5.50925 40.6896Z" fill="url(#paint3_linear_299_39)"/>
<defs>
<linearGradient id="paint0_linear_299_39" x1="181.164" y1="-130.132" x2="181.164" y2="130" gradientUnits="userSpaceOnUse">
<stop stop-color="#FFD43B"/>
<stop offset="0.0001" stop-color="#FFD43B"/>
<stop offset="1" stop-color="#FFE873"/>
</linearGradient>
<linearGradient id="paint1_linear_299_39" x1="122.547" y1="0" x2="122.547" y2="191.049" gradientUnits="userSpaceOnUse">
<stop stop-color="#FFD43B"/>
<stop offset="0.0001" stop-color="#FFD43B"/>
<stop offset="1" stop-color="#FFE873"/>
</linearGradient>
<linearGradient id="paint2_linear_299_39" x1="234.684" y1="-60.9516" x2="234.684" y2="130" gradientUnits="userSpaceOnUse">
<stop stop-color="#306998"/>
<stop offset="1" stop-color="#4B8BBE"/>
</linearGradient>
<linearGradient id="paint3_linear_299_39" x1="48.6364" y1="3.17073" x2="48.6364" y2="126.829" gradientUnits="userSpaceOnUse">
<stop stop-color="#306998"/>
<stop offset="1" stop-color="#4B8BBE"/>
</linearGradient>
</defs>
</svg>
