<svg width="5" height="3" viewBox="0 0 5 3" fill="none" xmlns="http://www.w3.org/2000/svg">
<path d="M3.07853 0.00631185C3.13793 0.0184191 3.18826 0.0471259 3.21846 0.0861202C3.24865 0.125114 3.25625 0.171204 3.23957 0.214254L2.20864 2.87686C2.20039 2.89819 2.18642 2.91813 2.16754 2.93555C2.14865 2.95297 2.12522 2.96751 2.09857 2.97837C2.07193 2.98922 2.0426 2.99616 2.01225 2.9988C1.9819 3.00144 1.95113 2.99972 1.9217 2.99374C1.89228 2.98776 1.86476 2.97764 1.84073 2.96395C1.8167 2.95026 1.79662 2.93328 1.78164 2.91397C1.76667 2.89466 1.75709 2.8734 1.75345 2.85141C1.74981 2.82942 1.75218 2.80712 1.76043 2.78579L2.79136 0.123185C2.7996 0.101837 2.81358 0.0818768 2.83248 0.0644461C2.85138 0.0470154 2.87484 0.0324562 2.90151 0.0216012C2.92818 0.0107463 2.95754 0.00380866 2.98792 0.00118516C3.01829 -0.00143834 3.04908 0.000303755 3.07853 0.00631185ZM1.3846 0.665219C1.42823 0.696845 1.45274 0.739733 1.45274 0.784452C1.45274 0.829172 1.42823 0.87206 1.3846 0.903686L0.561955 1.50002L1.3846 2.09619C1.40622 2.11185 1.42338 2.13044 1.43508 2.15091C1.44679 2.17137 1.45282 2.1933 1.45283 2.21545C1.45284 2.2376 1.44683 2.25954 1.43515 2.28001C1.42346 2.30048 1.40632 2.31908 1.38472 2.33475C1.36311 2.35042 1.33746 2.36285 1.30922 2.37133C1.28099 2.37982 1.25072 2.38419 1.22015 2.38419C1.18959 2.3842 1.15932 2.37985 1.13107 2.37138C1.10283 2.36291 1.07716 2.35049 1.05554 2.33483L0.0681356 1.61926C0.0245084 1.58763 0 1.54474 0 1.50002C0 1.45531 0.0245084 1.41242 0.0681356 1.38079L1.05554 0.665219C1.09918 0.633602 1.15836 0.615841 1.22007 0.615841C1.28178 0.615841 1.34096 0.633602 1.3846 0.665219ZM3.6154 0.903686C3.59317 0.888129 3.57544 0.86952 3.56325 0.848944C3.55105 0.828368 3.54463 0.806238 3.54436 0.783845C3.54409 0.761453 3.54998 0.739245 3.56168 0.718519C3.57339 0.697793 3.59066 0.678963 3.61252 0.663128C3.63437 0.647293 3.66035 0.634771 3.68895 0.626291C3.71755 0.617811 3.74819 0.613544 3.77909 0.613739C3.80999 0.613933 3.84053 0.618586 3.86892 0.627424C3.89731 0.636263 3.92299 0.649111 3.94446 0.665219L4.93186 1.38079C4.97549 1.41242 5 1.45531 5 1.50002C5 1.54474 4.97549 1.58763 4.93186 1.61926L3.94446 2.33466C3.90057 2.36538 3.84178 2.38238 3.78077 2.382C3.71975 2.38161 3.66138 2.36388 3.61823 2.33261C3.57509 2.30134 3.55061 2.25904 3.55008 2.21482C3.54955 2.1706 3.57301 2.128 3.6154 2.09619L4.43804 1.50002L3.6154 0.903686Z" fill="#0476D0"/>
</svg>
