<svg width="894" height="1022" viewBox="0 0 894 1022" fill="none" xmlns="http://www.w3.org/2000/svg">
<path d="M894 575C894 821.871 693.871 1022 447 1022C200.129 1022 0 821.871 0 575C0 472.633 34.4101 378.304 92.2944 302.946L67.3518 279.054C59.3752 271.414 59.1028 258.753 66.7436 250.776L133.77 180.803C141.411 172.827 154.071 172.554 162.048 180.195L191.357 208.27C250.397 167.037 319.859 139.698 395 130.992V102.5L353 102C341.954 102 333 93.0457 333 82V20C333 8.9543 341.954 0 353 0H541C552.046 0 561 8.95431 561 20V82C561 93.0457 552.046 102 541 102L498 102.5V130.878C573.348 139.435 643.013 166.726 702.225 207.979L728.604 180.442C736.245 172.466 748.905 172.194 756.882 179.835L826.852 246.864C834.829 254.505 835.1 267.166 827.459 275.142L801.313 302.436C859.434 377.877 894 472.402 894 575Z" fill="white"/>
</svg>
