<svg width="64" height="64" viewBox="0 0 64 64" fill="none" xmlns="http://www.w3.org/2000/svg">
<path d="M31.8929 8C19.6734 8 20.436 13.2871 20.436 13.2871L20.4511 18.7647H32.111V20.4081H15.8169C15.8169 20.4081 8 19.5226 8 31.8256C8 44.1256 14.8242 43.6904 14.8242 43.6904H18.8973V37.9816C18.8973 37.9816 18.6777 31.1728 25.6132 31.1728H37.1768C37.1768 31.1728 43.6746 31.2779 43.6746 24.9072V14.3736C43.6746 14.3736 44.6613 8 31.8929 8ZM25.4628 11.6828C26.6225 11.6828 27.561 12.6193 27.561 13.7763C27.561 14.9334 26.6225 15.8698 25.4628 15.8698C25.1871 15.8702 24.9141 15.8164 24.6594 15.7113C24.4046 15.6062 24.1731 15.452 23.9782 15.2575C23.7833 15.0631 23.6288 14.8321 23.5235 14.5779C23.4182 14.3238 23.3642 14.0514 23.3645 13.7763C23.3645 12.6193 24.3031 11.6828 25.4628 11.6828Z" fill="url(#paint0_linear_402_190)"/>
<path d="M32.1071 56C44.3266 56 43.564 50.7127 43.564 50.7127L43.5489 45.2348H31.889V43.5914H48.1816C48.1816 43.5914 56 44.4769 56 32.1749C56 19.8729 49.1758 20.3096 49.1758 20.3096H45.1027V26.0171C45.1027 26.0171 45.3223 32.8262 38.3868 32.8262H26.8232C26.8232 32.8262 20.3254 32.7212 20.3254 39.0921V49.6261C20.3254 49.6261 19.3387 56 32.1071 56ZM38.5372 52.3171C38.2616 52.3174 37.9885 52.2636 37.7338 52.1585C37.479 52.0534 37.2476 51.8992 37.0527 51.7047C36.8577 51.5102 36.7032 51.2793 36.5979 51.0251C36.4926 50.7709 36.4386 50.4985 36.439 50.2234C36.439 49.0678 37.3775 48.1313 38.5372 48.1313C39.6969 48.1313 40.6355 49.0663 40.6355 50.2234C40.6355 51.3821 39.6969 52.3171 38.5372 52.3171Z" fill="url(#paint1_linear_402_190)"/>
<defs>
<linearGradient id="paint0_linear_402_190" x1="14.22" y1="13.6147" x2="46.1541" y2="45.728" gradientUnits="userSpaceOnUse">
<stop stop-color="#387EB8"/>
<stop offset="1" stop-color="#366994"/>
</linearGradient>
<linearGradient id="paint1_linear_402_190" x1="27.1345" y1="27.5584" x2="52.6414" y2="52.0492" gradientUnits="userSpaceOnUse">
<stop stop-color="#FFE052"/>
<stop offset="1" stop-color="#FFC331"/>
</linearGradient>
</defs>
</svg>
